
<svg xmlns="http://www.w3.org/2000/svg" version="1.1" xmlns:xlink="http://www.w3.org/1999/xlink" preserveAspectRatio="none" x="0px" y="0px" width="1280px" height="720px" viewBox="0 0 1280 720">
<defs>
<g id="CircumLine_0_Layer0_0_STROKES_1_FILL">
<path fill="#999999" stroke="none" d="
M -19.5 199.65
Q -19.2892578125 199.662890625 -19.15 199.5 -18.9669921875 199.3984375 -18.95 199.2 -18.9369140625 198.9890625 -19.1 198.8 -19.2013671875 198.6671875 -19.4 198.65 -22.4 198.3998046875 -25.35 198.05 -25.5455078125 198.0236328125 -25.7 198.15 -25.869140625 198.28671875 -25.9 198.5 -25.9265625 198.6958984375 -25.8 198.85 -25.663671875 199.0189453125 -25.45 199.05 -22.5001953125 199.4 -19.5 199.65
M -7.2 199.55
Q -7.31796875 199.4029296875 -7.55 199.4 -10.525 199.2998046875 -13.5 199.1 -13.6748046875 199.0875 -13.85 199.2 -13.98359375 199.365234375 -14 199.55 -14.0126953125 199.7748046875 -13.9 199.9 -13.734765625 200.0833984375 -13.55 200.1 -10.575 200.3 -7.6 200.4 -7.3599609375 200.4115234375 -7.2 200.25 -7.052734375 200.1322265625 -7.05 199.9 -7.03828125 199.7099609375 -7.2 199.55
M -171.85 103.9
Q -171.878125 104.1 -171.8 104.25 -170.175 106.825 -168.55 109.3 -168.40625 109.502734375 -168.2 109.55 -167.998046875 109.5904296875 -167.85 109.45 -167.646875 109.3564453125 -167.6 109.15 -167.559765625 108.9484375 -167.7 108.75 -169.325 106.2748046875 -170.95 103.7 -171.0423828125 103.560546875 -171.25 103.5 -171.450390625 103.4716796875 -171.65 103.55 -171.7896484375 103.6919921875 -171.85 103.9
M -177.55 93.3
Q -177.7115234375 93.400390625 -177.8 93.6 -177.84140625 93.794921875 -177.75 93.95 -176.3376953125 96.5875 -174.85 99.2 -174.7228515625 99.374609375 -174.55 99.4 -174.327734375 99.4787109375 -174.15 99.35 -173.974609375 99.2728515625 -173.95 99.05 -173.8712890625 98.878515625 -174 98.7 -175.4625 96.1125 -176.85 93.5 -176.95078125 93.338671875 -177.15 93.25 -177.3451171875 93.2083984375 -177.55 93.3
M -182.85 82.65
Q -183.0458984375 82.734375 -183.15 82.9 -183.191796875 83.1150390625 -183.1 83.3 -181.8501953125 86.0126953125 -180.5 88.65 -180.401171875 88.859375 -180.2 88.9 -180.0068359375 88.991796875 -179.85 88.9 -179.63984375 88.8009765625 -179.6 88.6 -179.508203125 88.4076171875 -179.6 88.2 -180.9498046875 85.5875 -182.2 82.9 -182.2845703125 82.7044921875 -182.5 82.6 -182.665234375 82.5580078125 -182.85 82.65
M -187.45 71.6
Q -187.616015625 71.7046875 -187.7 71.9 -187.791796875 72.085546875 -187.75 72.25 -186.6626953125 75.0875 -185.5 77.85 -185.4302734375 78.03046875 -185.25 78.1 -185.0501953125 78.1794921875 -184.85 78.1 -184.6689453125 78.0302734375 -184.6 77.85 -184.5205078125 77.6509765625 -184.6 77.45 -185.7375 74.7123046875 -186.8 71.9 -186.8548828125 71.73359375 -187.05 71.65 -187.2353515625 71.5580078125 -187.45 71.6
M -190.7 60.65
Q -190.7396484375 60.44921875 -190.95 60.35 -191.10625 60.2583984375 -191.3 60.3 -191.500390625 60.389453125 -191.6 60.55 -191.69140625 60.756640625 -191.65 60.95 -190.7251953125 63.8 -189.8 66.6 -189.7091796875 66.8021484375 -189.55 66.9 -189.3419921875 66.991796875 -189.15 66.9 -188.9482421875 66.859375 -188.85 66.65 -188.7583984375 66.4916015625 -188.85 66.3 -189.775 63.5 -190.7 60.65
M -194.8 49
Q -194.8783203125 49.1755859375 -194.85 49.35 -194.1251953125 52.325 -193.35 55.2 -193.2748046875 55.423046875 -193.1 55.5 -192.921875 55.62890625 -192.75 55.55 -192.5267578125 55.525 -192.45 55.35 -192.3212890625 55.1720703125 -192.4 54.95 -193.175 52.075 -193.9 49.1 -193.9234375 48.92890625 -194.1 48.8 -194.275390625 48.721484375 -194.5 48.75 -194.6708984375 48.8232421875 -194.8 49
M -195.15 43.3
Q -195.75 40.4 -196.3 37.45 -196.3462890625 37.25703125 -196.55 37.15 -196.6966796875 37.022265625 -196.9 37.05 -197.0927734375 37.09609375 -197.2 37.25 -197.3275390625 37.446875 -197.3 37.65 -196.75 40.6 -196.15 43.5 -196.103125 43.7060546875 -195.95 43.8 -195.751953125 43.940625 -195.55 43.9 -195.34375 43.853125 -195.25 43.65 -195.1095703125 43.501953125 -195.15 43.3
M -198.6 25.2
Q -198.8130859375 25.2306640625 -198.95 25.4 -199.076171875 25.5537109375 -199.05 25.75 -198.7001953125 28.7623046875 -198.25 31.75 -198.217578125 31.9783203125 -198.05 32.1 -197.8810546875 32.2271484375 -197.7 32.2 -197.4720703125 32.16796875 -197.35 32 -197.223046875 31.8306640625 -197.25 31.6 -197.7 28.6373046875 -198.05 25.65 -198.080859375 25.437109375 -198.25 25.3 -198.40390625 25.1736328125 -198.6 25.2
M -199.65 13.2
Q -199.8345703125 13.21640625 -200 13.35 -200.1126953125 13.525390625 -200.1 13.7 -199.9001953125 16.7375 -199.65 19.75 -199.6328125 19.9486328125 -199.5 20.05 -199.3109375 20.2130859375 -199.1 20.2 -198.9015625 20.1830078125 -198.8 20 -198.637109375 19.8607421875 -198.65 19.65 -198.9 16.6623046875 -199.1 13.65 -199.1166015625 13.4650390625 -199.3 13.3 -199.4251953125 13.1873046875 -199.65 13.2
M -200.35 1.3
Q -200.4982421875 1.4447265625 -200.5 1.65 -200.5001953125 4.7125 -200.4 7.7 -200.3970703125 7.93203125 -200.25 8.05 -200.0900390625 8.21171875 -199.9 8.2 -199.6677734375 8.197265625 -199.55 8.05 -199.3884765625 7.8900390625 -199.4 7.65 -199.5 4.6873046875 -199.5 1.65 -199.5017578125 1.4447265625 -199.65 1.3 -199.7947265625 1.1517578125 -200 1.15 -200.2052734375 1.1517578125 -200.35 1.3
M -37.55 197.05
Q -37.4296875 197.2541015625 -37.25 197.3 -34.3251953125 197.8 -31.4 198.25 -31.16875 198.276953125 -31 198.15 -30.8322265625 198.0279296875 -30.8 197.8 -30.7728515625 197.6189453125 -30.9 197.45 -31.022265625 197.282421875 -31.25 197.25 -34.175 196.8 -37.1 196.3 -37.2666015625 196.27265625 -37.45 196.4 -37.6044921875 196.520703125 -37.65 196.7 -37.6775390625 196.916796875 -37.55 197.05
M -49.25 194.65
Q -49.1212890625 194.826171875 -48.95 194.85 -46.0125 195.5876953125 -43.1 196.2 -42.898046875 196.2404296875 -42.75 196.1 -42.546875 196.00625 -42.5 195.8 -42.459375 195.598046875 -42.6 195.4 -42.6939453125 195.246875 -42.9 195.2 -45.7875 194.6123046875 -48.7 193.9 -48.87421875 193.8716796875 -49.05 193.95 -49.2265625 194.07890625 -49.3 194.25 -49.328515625 194.47421875 -49.25 194.65
M -60.15 190.7
Q -60.343359375 190.65859375 -60.55 190.75 -60.710546875 190.849609375 -60.8 191.05 -60.8416015625 191.24375 -60.75 191.4 -60.65078125 191.6103515625 -60.45 191.65 -57.5875 192.575 -54.7 193.35 -54.4779296875 193.4287109375 -54.3 193.3 -54.125 193.2232421875 -54.1 193 -54.02109375 192.828125 -54.15 192.65 -54.226953125 192.4751953125 -54.45 192.4 -57.3125 191.6248046875 -60.15 190.7
M -71.45 186.85
Q -71.614453125 186.808203125 -71.8 186.9 -71.9953125 186.983984375 -72.1 187.15 -72.1419921875 187.3646484375 -72.05 187.55 -71.96640625 187.7451171875 -71.8 187.8 -68.9625 188.875 -66.15 189.8 -65.9583984375 189.8916015625 -65.8 189.8 -65.590625 189.7017578125 -65.55 189.5 -65.458203125 189.3080078125 -65.55 189.1 -65.6478515625 188.9408203125 -65.85 188.85 -68.6375 187.9248046875 -71.45 186.85
M -82.5 182.3
Q -82.6859375 182.208203125 -82.9 182.25 -83.066015625 182.3546875 -83.15 182.55 -83.2419921875 182.7353515625 -83.2 182.9 -83.0947265625 183.116015625 -82.9 183.2 -80.15 184.4625 -77.35 185.6 -77.150390625 185.691796875 -76.95 185.6 -76.7689453125 185.53046875 -76.7 185.35 -76.6205078125 185.1501953125 -76.7 184.95 -76.7693359375 184.769140625 -76.95 184.7 -79.7498046875 183.5498046875 -82.5 182.3
M -88.35 180.6
Q -88.142578125 180.6916015625 -87.95 180.6 -87.748828125 180.559765625 -87.65 180.35 -87.558203125 180.192578125 -87.65 180 -87.6904296875 179.7990234375 -87.9 179.7 -90.575 178.35 -93.25 176.95 -93.405859375 176.85859375 -93.6 176.9 -93.8 176.9890625 -93.9 177.15 -93.9916015625 177.35546875 -93.95 177.55 -93.8607421875 177.7498046875 -93.7 177.85 -91.0251953125 179.25 -88.35 180.6
M -104.25 171.2
Q -104.328515625 171.37578125 -104.3 171.55 -104.2263671875 171.7708984375 -104.05 171.85 -101.5001953125 173.4248046875 -98.9 174.9 -98.721484375 175.0287109375 -98.55 174.95 -98.3271484375 174.925390625 -98.25 174.75 -98.1212890625 174.572265625 -98.2 174.35 -98.225390625 174.1771484375 -98.4 174.05 -101 172.575 -103.55 171 -103.7259765625 170.921875 -103.95 170.95 -104.1212890625 171.0234375 -104.25 171.2
M -113.45 164.45
Q -113.6201171875 164.3228515625 -113.85 164.35 -114.02890625 164.3826171875 -114.15 164.55 -114.2775390625 164.719921875 -114.25 164.9 -114.2171875 165.1283203125 -114.05 165.25 -111.5875 167.0126953125 -109.15 168.65 -108.9521484375 168.790234375 -108.75 168.75 -108.544140625 168.703515625 -108.45 168.5 -108.3095703125 168.352734375 -108.35 168.15 -108.3970703125 167.944140625 -108.6 167.8 -111.0125 166.1873046875 -113.45 164.45
M -127.4 153.85
Q -127.417578125 153.6517578125 -127.6 153.5 -129.825 151.6248046875 -132.05 149.6 -132.1736328125 149.48828125 -132.4 149.5 -132.583203125 149.5158203125 -132.75 149.65 -132.862109375 149.8236328125 -132.85 150 -132.8341796875 150.2328125 -132.7 150.35 -130.475 152.375 -128.25 154.25 -128.060546875 154.412890625 -127.85 154.4 -127.6517578125 154.3830078125 -127.55 154.2 -127.3869140625 154.0609375 -127.4 153.85
M -123.8 157.75
Q -123.7685546875 157.96328125 -123.6 158.1 -121.25 159.95 -118.9 161.75 -118.7318359375 161.8767578125 -118.55 161.85 -118.3232421875 161.8185546875 -118.2 161.65 -118.0732421875 161.482421875 -118.1 161.25 -118.13203125 161.0732421875 -118.3 160.95 -120.65 159.1498046875 -123 157.3 -123.1546875 157.1734375 -123.35 157.2 -123.56328125 157.230859375 -123.7 157.4 -123.8265625 157.5541015625 -123.8 157.75
M -142.2 141.1
Q -142.1982421875 141.3052734375 -142.05 141.45 -141.9 141.6 -141.75 141.75 -139.4 144.1125 -137.05 146.3 -136.8896484375 146.4615234375 -136.7 146.45 -136.4677734375 146.447265625 -136.35 146.3 -136.18828125 146.13984375 -136.2 145.9 -136.203125 145.71796875 -136.35 145.55 -138.7 143.3873046875 -141.05 141.05 -141.2 140.9 -141.35 140.75 -141.4947265625 140.6017578125 -141.7 140.6 -141.9052734375 140.6017578125 -142.05 140.75 -142.1982421875 140.8947265625 -142.2 141.1
M -150.2 132.1
Q -150.333984375 132.266015625 -150.35 132.45 -150.362109375 132.675390625 -150.25 132.8 -148.2626953125 135.0375 -146.2 137.2 -146.05625 137.347265625 -145.85 137.35 -145.646875 137.3490234375 -145.5 137.2 -145.35234375 137.0564453125 -145.35 136.85 -145.351171875 136.647265625 -145.5 136.5 -147.5375 134.3623046875 -149.5 132.15 -149.61640625 132.0162109375 -149.85 132 -150.025390625 131.9875 -150.2 132.1
M -157.9 123.05
Q -158.0322265625 123.1875 -158.05 123.4 -158.0759765625 123.608984375 -157.95 123.75 -156.0876953125 126.075 -154.15 128.3 -153.984765625 128.4830078125 -153.8 128.5 -153.575390625 128.512890625 -153.45 128.35 -153.2666015625 128.2349609375 -153.25 128 -153.2373046875 127.8259765625 -153.4 127.65 -155.3123046875 125.425 -157.15 123.1 -157.2880859375 122.96796875 -157.5 122.95 -157.709375 122.9236328125 -157.9 123.05
M -161.6 119.1
Q -161.4771484375 119.26796875 -161.3 119.3 -161.068359375 119.326953125 -160.9 119.2 -160.731640625 119.07734375 -160.7 118.85 -160.6732421875 118.66875 -160.8 118.5 -162.6 116.1123046875 -164.3 113.65 -164.408203125 113.495703125 -164.6 113.45 -164.80390625 113.4224609375 -165 113.55 -165.154296875 113.6578125 -165.2 113.85 -165.2271484375 114.05390625 -165.1 114.2 -163.4001953125 116.6873046875 -161.6 119.1
M -155.6 -126.7
Q -155.7130859375 -126.51015625 -155.7 -126.3 -155.6826171875 -126.1009765625 -155.55 -126 -155.3603515625 -125.8365234375 -155.15 -125.85 -154.9513671875 -125.867578125 -154.85 -126.05 -152.925 -128.325 -150.95 -130.6 -150.7876953125 -130.7248046875 -150.8 -130.95 -150.8162109375 -131.133984375 -151 -131.3 -151.1244140625 -131.4126953125 -151.35 -131.4 -151.5337890625 -131.38359375 -151.7 -131.25 -153.6751953125 -128.9751953125 -155.6 -126.7
M -142.85 -139.95
Q -142.9947265625 -140.0982421875 -143.2 -140.1 -143.4052734375 -140.0982421875 -143.55 -139.95 -145.6626953125 -137.85 -147.7 -135.7 -147.8119140625 -135.5390625 -147.8 -135.35 -147.7970703125 -135.117578125 -147.65 -135 -147.4896484375 -134.8380859375 -147.3 -134.85 -147.067578125 -134.8533203125 -146.95 -135 -144.9373046875 -137.15 -142.85 -139.25 -142.7017578125 -139.3947265625 -142.7 -139.6 -142.7017578125 -139.8052734375 -142.85 -139.95
M -125.2 -156.55
Q -125.41015625 -156.5630859375 -125.6 -156.45 -127.875 -154.5251953125 -130.15 -152.6 -130.2830078125 -152.434765625 -130.3 -152.25 -130.312890625 -152.025390625 -130.2 -151.9 -130.0349609375 -151.7166015625 -129.85 -151.7 -129.6259765625 -151.6873046875 -129.5 -151.85 -127.225 -153.775 -124.95 -155.7 -124.767578125 -155.8013671875 -124.75 -156 -124.7365234375 -156.2103515625 -124.9 -156.4 -125.0009765625 -156.5326171875 -125.2 -156.55
M -134.25 -148.75
Q -134.4263671875 -148.76171875 -134.6 -148.65 -136.7876953125 -146.6126953125 -138.95 -144.5 -139.0978515625 -144.3552734375 -139.1 -144.15 -139.0986328125 -143.9458984375 -138.95 -143.8 -138.8056640625 -143.6521484375 -138.6 -143.65 -138.39609375 -143.6517578125 -138.25 -143.8 -136.1125 -145.8875 -133.95 -147.9 -133.7658203125 -148.0171875 -133.75 -148.25 -133.7376953125 -148.4263671875 -133.9 -148.6 -134.016796875 -148.7341796875 -134.25 -148.75
M -115.8 -163.85
Q -115.98046875 -163.876953125 -116.15 -163.75 -118.55 -162.0001953125 -120.9 -160.15 -121.0685546875 -160.01328125 -121.1 -159.8 -121.1265625 -159.6041015625 -121 -159.45 -120.86328125 -159.280859375 -120.65 -159.25 -120.4546875 -159.2236328125 -120.3 -159.35 -117.95 -161.2 -115.55 -162.95 -115.3826171875 -163.0720703125 -115.35 -163.3 -115.32265625 -163.4806640625 -115.45 -163.65 -115.5716796875 -163.817578125 -115.8 -163.85
M -106.25 -170.55
Q -108.725 -168.9251953125 -111.25 -167.25 -111.403125 -167.10546875 -111.45 -166.9 -111.490234375 -166.696875 -111.4 -166.55 -111.25546875 -166.3462890625 -111.05 -166.3 -110.84765625 -166.259765625 -110.7 -166.4 -108.175 -168.075 -105.7 -169.7 -105.4978515625 -169.79296875 -105.45 -170 -105.409375 -170.2009765625 -105.55 -170.4 -105.6427734375 -170.5525390625 -105.85 -170.6 -106.05078125 -170.640625 -106.25 -170.55
M -84.65 -181.95
Q -84.73515625 -182.108984375 -84.95 -182.2 -85.1283203125 -182.2419921875 -85.35 -182.15 -88.0251953125 -180.8501953125 -90.7 -179.5 -90.859375 -179.401171875 -90.95 -179.2 -90.991796875 -179.0068359375 -90.9 -178.85 -90.801171875 -178.63984375 -90.6 -178.6 -90.4076171875 -178.508203125 -90.25 -178.6 -87.575 -179.95 -84.9 -181.25 -84.691796875 -181.3353515625 -84.65 -181.55 -84.5580078125 -181.72890625 -84.65 -181.95
M -95.3 -176.5
Q -95.3763671875 -176.674609375 -95.6 -176.75 -95.770703125 -176.77890625 -95.95 -176.7 -98.55 -175.2251953125 -101.1 -173.7 -101.2763671875 -173.5708984375 -101.35 -173.4 -101.378515625 -173.17578125 -101.3 -173 -101.1712890625 -172.8234375 -101 -172.8 -100.7759765625 -172.721875 -100.6 -172.85 -98.05 -174.3748046875 -95.45 -175.85 -95.27578125 -175.9265625 -95.25 -176.15 -95.17109375 -176.32109375 -95.3 -176.5
M -73.9 -186.95
Q -74.086328125 -187.0419921875 -74.3 -187 -77.0875 -185.862890625 -79.85 -184.65 -80.0443359375 -184.566796875 -80.15 -184.4 -80.1919921875 -184.186328125 -80.1 -184 -80.0169921875 -183.80546875 -79.85 -183.75 -79.63671875 -183.658203125 -79.45 -183.75 -76.7123046875 -184.9375 -73.95 -186.05 -73.733203125 -186.10546875 -73.65 -186.3 -73.5580078125 -186.486328125 -73.65 -186.7 -73.70546875 -186.8669921875 -73.9 -186.95
M -68.7 -188.15
Q -68.4787109375 -188.058203125 -68.3 -188.15 -65.4375 -189.125 -62.6 -190.1 -62.398828125 -190.140234375 -62.3 -190.35 -62.208203125 -190.5072265625 -62.3 -190.7 -62.340234375 -190.9013671875 -62.55 -191 -62.7072265625 -191.091796875 -62.9 -191.05 -65.7625 -190.0751953125 -68.65 -189.1 -68.8150390625 -189.0087890625 -68.9 -188.85 -68.9919921875 -188.62890625 -68.95 -188.45 -68.858984375 -188.23515625 -68.7 -188.15
M -50.75 -194.05
Q -50.77421875 -194.222265625 -50.95 -194.35 -51.1275390625 -194.428515625 -51.35 -194.4 -54.2376953125 -193.625390625 -57.15 -192.8 -57.3494140625 -192.7240234375 -57.45 -192.55 -57.5416015625 -192.3580078125 -57.5 -192.15 -57.42421875 -191.95078125 -57.25 -191.85 -57.0578125 -191.75859375 -56.85 -191.85 -53.9625 -192.6748046875 -51.1 -193.45 -50.87734375 -193.4744140625 -50.8 -193.65 -50.6712890625 -193.826953125 -50.75 -194.05
M -39.15 -196.9
Q -39.296484375 -197.0275390625 -39.5 -197 -42.5001953125 -196.4501953125 -45.45 -195.8 -45.6572265625 -195.75234375 -45.8 -195.6 -45.8908203125 -195.4009765625 -45.85 -195.2 -45.8025390625 -194.9927734375 -45.65 -194.9 -45.451171875 -194.759375 -45.25 -194.8 -42.3 -195.4498046875 -39.3 -196 -39.107421875 -196.04609375 -39 -196.25 -38.872265625 -196.396484375 -38.9 -196.6 -38.9458984375 -196.792578125 -39.15 -196.9
M -200.1 -11.65
Q -200.2341796875 -11.4833984375 -200.25 -11.3 -200.4001953125 -8.3126953125 -200.45 -5.3 -200.4486328125 -5.09609375 -200.3 -4.95 -200.155859375 -4.8021484375 -199.95 -4.8 -199.7462890625 -4.801171875 -199.6 -4.95 -199.45234375 -5.0943359375 -199.45 -5.3 -199.4 -8.2875 -199.25 -11.25 -199.237890625 -11.426171875 -199.4 -11.6 -199.5166015625 -11.7341796875 -199.75 -11.75 -199.926171875 -11.7623046875 -200.1 -11.65
M -198.75 -23.65
Q -198.9595703125 -23.663671875 -199.15 -23.55 -199.28203125 -23.3998046875 -199.3 -23.2 -199.6 -20.25 -199.85 -17.25 -199.8630859375 -17.0392578125 -199.75 -16.9 -199.5984375 -16.7169921875 -199.4 -16.7 -199.1888671875 -16.6869140625 -199.05 -16.85 -198.8671875 -16.9513671875 -198.85 -17.15 -198.6 -20.15 -198.3 -23.1 -198.2865234375 -23.309375 -198.45 -23.5 -198.550390625 -23.6322265625 -198.75 -23.65
M -196.8 -35.3
Q -196.9208984375 -35.4671875 -197.15 -35.5 -197.3296875 -35.5275390625 -197.5 -35.4 -197.6669921875 -35.279296875 -197.7 -35.1 -198.2001953125 -32.125 -198.6 -29.15 -198.6265625 -28.91796875 -198.5 -28.75 -198.3765625 -28.5814453125 -198.2 -28.55 -197.9677734375 -28.5232421875 -197.8 -28.65 -197.631640625 -28.7732421875 -197.6 -29 -197.1998046875 -31.975 -196.7 -34.95 -196.6728515625 -35.1296875 -196.8 -35.3
M -195.2 -47.15
Q -195.3521484375 -47.0076171875 -195.4 -46.8 -196.0501953125 -43.9001953125 -196.65 -40.95 -196.6904296875 -40.7474609375 -196.6 -40.6 -196.45625 -40.3966796875 -196.25 -40.35 -196.04765625 -40.3095703125 -195.9 -40.45 -195.696875 -40.544140625 -195.65 -40.75 -195.05 -43.7 -194.4 -46.6 -194.359375 -46.8005859375 -194.5 -47 -194.5923828125 -47.15234375 -194.8 -47.2 -195.0005859375 -47.2408203125 -195.2 -47.15
M -193.25 -52.15
Q -193.0744140625 -52.22734375 -193.05 -52.45 -192.275 -55.3125 -191.45 -58.15 -191.35859375 -58.3451171875 -191.45 -58.55 -191.5505859375 -58.7115234375 -191.75 -58.8 -191.9451171875 -58.8416015625 -192.15 -58.75 -192.311328125 -58.649609375 -192.4 -58.45 -193.2251953125 -55.5876953125 -194 -52.7 -194.028515625 -52.4775390625 -193.95 -52.3 -193.822265625 -52.12421875 -193.65 -52.1 -193.426953125 -52.0212890625 -193.25 -52.15
M -188 -70.15
Q -188.178515625 -70.191796875 -188.4 -70.1 -188.55859375 -70.015234375 -188.65 -69.85 -189.625 -67.0126953125 -190.6 -64.15 -190.641796875 -63.9572265625 -190.55 -63.8 -190.4513671875 -63.590234375 -190.25 -63.55 -190.0572265625 -63.458203125 -189.9 -63.55 -189.690234375 -63.648828125 -189.65 -63.85 -188.675 -66.6875 -187.7 -69.5 -187.608203125 -69.678515625 -187.7 -69.9 -187.784765625 -70.0587890625 -188 -70.15
M -183.9 -81.25
Q -184.066796875 -81.1443359375 -184.15 -80.95 -185.3626953125 -78.1875 -186.5 -75.45 -186.541796875 -75.2373046875 -186.45 -75.05 -186.3673828125 -74.855859375 -186.2 -74.8 -185.9869140625 -74.7078125 -185.8 -74.8 -185.60625 -74.882421875 -185.55 -75.1 -184.4375 -77.8126953125 -183.25 -80.55 -183.158203125 -80.73671875 -183.25 -80.95 -183.30546875 -81.1169921875 -183.5 -81.2 -183.686328125 -81.2919921875 -183.9 -81.25
M -178.05 -91.35
Q -177.95859375 -91.505859375 -178.05 -91.7 -178.0890625 -91.9 -178.3 -92 -178.45546875 -92.0916015625 -178.65 -92.05 -178.8498046875 -91.9607421875 -178.95 -91.8 -180.3501953125 -89.1251953125 -181.65 -86.45 -181.7419921875 -86.2283203125 -181.7 -86.05 -181.608984375 -85.83515625 -181.45 -85.75 -181.22890625 -85.6580078125 -181.05 -85.75 -180.8353515625 -85.791796875 -180.75 -86 -179.45 -88.675 -178.05 -91.35
M -172.75 -102.55
Q -172.921484375 -102.4759765625 -173.05 -102.3 -174.5751953125 -99.7 -176.05 -97.1 -176.12890625 -96.920703125 -176.1 -96.75 -176.024609375 -96.5263671875 -175.85 -96.45 -175.67109375 -96.32109375 -175.5 -96.4 -175.2765625 -96.42578125 -175.2 -96.6 -173.725 -99.2 -172.2 -101.8 -172.0716796875 -101.9767578125 -172.15 -102.2 -172.173828125 -102.3716796875 -172.35 -102.5 -172.5265625 -102.5787109375 -172.75 -102.55
M -162.5 -116.45
Q -162.2728515625 -116.48203125 -162.15 -116.65 -160.35 -119.05 -158.5 -121.4 -158.3736328125 -121.5546875 -158.4 -121.75 -158.430859375 -121.96328125 -158.6 -122.1 -158.7541015625 -122.2265625 -158.95 -122.2 -159.16328125 -122.1685546875 -159.3 -122 -161.1501953125 -119.65 -162.95 -117.25 -163.0767578125 -117.08125 -163.05 -116.9 -163.0181640625 -116.67265625 -162.85 -116.55 -162.681640625 -116.423046875 -162.5 -116.45
M -166.15 -112.6
Q -166.35546875 -112.553125 -166.5 -112.4 -168.175 -109.875 -169.85 -107.4 -169.9404296875 -107.2015625 -169.9 -107 -169.853125 -106.7935546875 -169.7 -106.7 -169.501953125 -106.5595703125 -169.3 -106.6 -169.09375 -106.647265625 -169 -106.85 -167.325 -109.325 -165.65 -111.85 -165.509765625 -111.99765625 -165.55 -112.2 -165.5962890625 -112.40546875 -165.8 -112.55 -165.946875 -112.640234375 -166.15 -112.6
M -9.45 -200.3
Q -9.6333984375 -200.2841796875 -9.8 -200.15 -9.9123046875 -199.9759765625 -9.9 -199.8 -9.884375 -199.5666015625 -9.75 -199.45 -9.5759765625 -199.287890625 -9.4 -199.3 -6.3875 -199.45 -3.3 -199.5 -3.094140625 -199.50234375 -2.95 -199.65 -2.8013671875 -199.7962890625 -2.8 -200 -2.8021484375 -200.2060546875 -2.95 -200.35 -3.09609375 -200.4986328125 -3.3 -200.5 -6.4126953125 -200.4501953125 -9.45 -200.3
M -21.55 -199.5
Q -21.7490234375 -199.482421875 -21.9 -199.35 -22.013671875 -199.1599609375 -22 -198.95 -21.982421875 -198.75078125 -21.85 -198.65 -21.6603515625 -198.4865234375 -21.45 -198.5 -18.4625 -198.7998046875 -15.45 -199 -15.2150390625 -199.0166015625 -15.1 -199.2 -14.9373046875 -199.3251953125 -14.95 -199.55 -14.96640625 -199.734765625 -15.15 -199.9 -15.2755859375 -200.0125 -15.5 -200 -18.5376953125 -199.8001953125 -21.55 -199.5
M -27.25 -198.7
Q -27.4037109375 -198.826171875 -27.6 -198.8 -30.6126953125 -198.4501953125 -33.6 -198 -33.7779296875 -197.967578125 -33.9 -197.8 -34.0271484375 -197.6310546875 -34 -197.45 -33.9677734375 -197.2220703125 -33.8 -197.1 -33.63125 -196.973046875 -33.45 -197 -30.4875 -197.4498046875 -27.5 -197.8 -27.287109375 -197.830859375 -27.15 -198 -27.0236328125 -198.15390625 -27.05 -198.35 -27.0806640625 -198.5630859375 -27.25 -198.7
M 5.05 199.6
Q 4.903515625 199.451171875 4.7 199.45 2.35 199.4998046875 0 199.5 -0.8 199.5 -1.6 199.5 -1.8052734375 199.5017578125 -1.95 199.65 -2.0982421875 199.7947265625 -2.1 200 -2.0982421875 200.2052734375 -1.95 200.35 -1.8052734375 200.4982421875 -1.6 200.5 -0.8 200.5 0 200.5 2.35 200.5 4.7 200.45 4.905859375 200.44765625 5.05 200.3 5.198828125 200.1533203125 5.2 199.95 5.19765625 199.74375 5.05 199.6
M 17.05 199.7
Q 17.2126953125 199.5748046875 17.2 199.35 17.18359375 199.1654296875 17 199 16.8744140625 198.8873046875 16.65 198.9 13.6751953125 199.1 10.65 199.25 10.4666015625 199.2658203125 10.3 199.4 10.1876953125 199.5740234375 10.2 199.75 10.215625 199.9833984375 10.35 200.1 10.5240234375 200.262109375 10.7 200.25 13.725 200.0998046875 16.7 199.9 16.934765625 199.8833984375 17.05 199.7
M 96.55 175.35
Q 96.379296875 175.32109375 96.2 175.4 93.6123046875 176.8623046875 90.95 178.2 90.790625 178.298828125 90.7 178.5 90.658203125 178.6931640625 90.75 178.85 90.848828125 179.06015625 91.05 179.1 91.2423828125 179.191796875 91.4 179.1 94.0875 177.7375 96.7 176.25 96.87421875 176.1734375 96.9 175.95 96.97890625 175.77890625 96.85 175.6 96.7736328125 175.425390625 96.55 175.35
M 106.35 169.2
Q 103.8875 170.8748046875 101.35 172.4 101.1736328125 172.5291015625 101.1 172.7 101.071484375 172.92421875 101.15 173.1 101.2787109375 173.2765625 101.45 173.3 101.6740234375 173.378125 101.85 173.25 104.4125 171.725 106.9 170.05 107.102734375 169.95625 107.15 169.75 107.1904296875 169.548046875 107.05 169.35 106.9564453125 169.196875 106.75 169.15 106.5484375 169.1095703125 106.35 169.2
M 111.1 166.25
Q 111.0724609375 166.45390625 111.2 166.6 111.3078125 166.804296875 111.5 166.85 111.70390625 166.8771484375 111.85 166.75 114.3375 165.05 116.75 163.3 116.9173828125 163.1779296875 116.95 162.95 116.97734375 162.7693359375 116.85 162.6 116.7283203125 162.432421875 116.5 162.4 116.31953125 162.373046875 116.15 162.5 113.7623046875 164.2498046875 111.3 165.95 111.145703125 166.058203125 111.1 166.25
M 120.8 159.6
Q 120.9232421875 159.7685546875 121.1 159.8 121.3318359375 159.8267578125 121.5 159.7 123.8625 157.8876953125 126.15 155.95 126.332421875 155.8486328125 126.35 155.65 126.3634765625 155.4396484375 126.2 155.25 126.0990234375 155.1173828125 125.9 155.1 125.68984375 155.0869140625 125.5 155.2 123.2373046875 157.1123046875 120.9 158.9 120.7318359375 159.0232421875 120.7 159.2 120.6732421875 159.432421875 120.8 159.6
M 152.05 130.55
Q 152.03359375 130.3654296875 151.85 130.2 151.7248046875 130.0873046875 151.5 130.1 151.3158203125 130.11640625 151.15 130.25 149.1748046875 132.5623046875 147.05 134.8 146.938671875 134.96015625 146.95 135.15 146.952734375 135.3822265625 147.1 135.5 147.26015625 135.66171875 147.45 135.65 147.681640625 135.647265625 147.8 135.5 149.9251953125 133.2375 151.9 130.9 152.0623046875 130.774609375 152.05 130.55
M 139.2 144.1
Q 139.4052734375 144.0982421875 139.55 143.95 140.65 142.85 141.75 141.75 142.7626953125 140.7498046875 143.7 139.75 143.8611328125 139.6029296875 143.85 139.4 143.84765625 139.1935546875 143.7 139.05 143.5529296875 138.90078125 143.35 138.9 143.1439453125 138.90234375 143 139.05 142.0498046875 140.05 141.05 141.05 139.95 142.15 138.85 143.25 138.7017578125 143.3947265625 138.7 143.6 138.7017578125 143.8052734375 138.85 143.95 138.9947265625 144.0982421875 139.2 144.1
M 135.2 148.05
Q 135.3466796875 147.932421875 135.35 147.7 135.3619140625 147.5103515625 135.2 147.35 135.082421875 147.202734375 134.85 147.2 134.6609375 147.1880859375 134.5 147.3 132.3123046875 149.3748046875 130.05 151.3 129.9169921875 151.465234375 129.9 151.65 129.887109375 151.874609375 130 152 130.1650390625 152.1833984375 130.35 152.2 130.5740234375 152.2126953125 130.7 152.05 132.9876953125 150.1251953125 135.2 148.05
M 159.6 121.65
Q 159.7263671875 121.4953125 159.7 121.3 159.669140625 121.08671875 159.5 120.95 159.3458984375 120.8234375 159.15 120.85 158.93671875 120.8814453125 158.8 121.05 156.9623046875 123.3875 155.05 125.65 154.9369140625 125.83984375 154.95 126.05 154.9673828125 126.2490234375 155.1 126.35 155.2896484375 126.5134765625 155.5 126.5 155.6986328125 126.482421875 155.8 126.3 157.7375 124.0125 159.6 121.65
M 69 188.7
Q 69.184375 188.791796875 69.35 188.7 72.2248046875 187.675 75 186.55 75.216796875 186.49453125 75.3 186.3 75.3919921875 186.113671875 75.3 185.9 75.24453125 185.7330078125 75.05 185.65 74.863671875 185.5580078125 74.65 185.6 71.875 186.7248046875 69 187.75 68.8345703125 187.854296875 68.75 188.05 68.6580078125 188.234765625 68.7 188.4 68.804296875 188.615625 69 188.7
M 80.2 183.35
Q 80.0056640625 183.433203125 79.9 183.6 79.8580078125 183.813671875 79.95 184 80.0330078125 184.19453125 80.2 184.25 80.41328125 184.341796875 80.6 184.25 83.3625 183.05 86.05 181.75 86.258203125 181.6646484375 86.3 181.45 86.3919921875 181.27109375 86.3 181.05 86.21484375 180.891015625 86 180.8 85.8216796875 180.7580078125 85.6 180.85 82.9373046875 182.1498046875 80.2 183.35
M 57.35 192.2
Q 57.4384765625 192.3994140625 57.6 192.5 57.8048828125 192.59140625 58 192.5 60.85 191.6751953125 63.7 190.7 63.901171875 190.659765625 64 190.45 64.091796875 190.2927734375 64 190.1 63.959765625 189.8986328125 63.75 189.8 63.5927734375 189.708203125 63.4 189.75 60.55 190.7248046875 57.7 191.55 57.500390625 191.638671875 57.4 191.8 57.3083984375 192.0048828125 57.35 192.2
M 46.2 194.55
Q 45.9923828125 194.5978515625 45.85 194.75 45.7591796875 194.9494140625 45.8 195.15 45.84765625 195.3576171875 46 195.45 46.1994140625 195.590625 46.4 195.55 49.3123046875 194.8876953125 52.2 194.1 52.42265625 194.0755859375 52.5 193.9 52.6287109375 193.723046875 52.55 193.5 52.52578125 193.327734375 52.35 193.2 52.1724609375 193.121484375 51.95 193.15 49.0873046875 193.9125 46.2 194.55
M 28.95 197.75
Q 28.7826171875 197.6234375 28.55 197.65 25.6373046875 198.05 22.65 198.35 22.4509765625 198.367578125 22.3 198.5 22.186328125 198.6900390625 22.2 198.9 22.217578125 199.09921875 22.35 199.2 22.5396484375 199.3634765625 22.75 199.35 25.7625 199.0501953125 28.7 198.65 28.9265625 198.618359375 29.05 198.45 29.1767578125 198.2822265625 29.15 198.05 29.1185546875 197.8732421875 28.95 197.75
M 34.3 197.7
Q 34.4703125 197.8271484375 34.65 197.8 37.6375 197.3 40.55 196.75 40.742578125 196.7037109375 40.85 196.5 40.977734375 196.3533203125 40.95 196.15 40.90390625 195.9572265625 40.7 195.85 40.553515625 195.722265625 40.35 195.75 37.4625 196.2998046875 34.5 196.8 34.320703125 196.8330078125 34.2 197 34.0724609375 197.1703125 34.1 197.35 34.1328125 197.5791015625 34.3 197.7
M 166.55 111.2
Q 166.403125 111.109765625 166.2 111.15 165.99453125 111.196875 165.85 111.35 164.1873046875 113.8625 162.4 116.3 162.2732421875 116.469140625 162.3 116.65 162.33203125 116.8779296875 162.5 117 162.6689453125 117.1271484375 162.85 117.1 163.0775390625 117.067578125 163.2 116.9 165.0126953125 114.4375 166.7 111.9 166.840234375 111.75234375 166.8 111.55 166.7537109375 111.34453125 166.55 111.2
M 172.65 101.05
Q 172.4791015625 101.1236328125 172.35 101.3 170.8248046875 103.8375 169.15 106.35 169.059375 106.54921875 169.1 106.75 169.147265625 106.95703125 169.3 107.05 169.498828125 107.1908203125 169.7 107.15 169.9068359375 107.10234375 170 106.9 171.675 104.3625 173.2 101.8 173.328125 101.6240234375 173.25 101.4 173.2265625 101.2287109375 173.05 101.1 172.87421875 101.021484375 172.65 101.05
M 179.1 91.25
Q 179.19140625 91.094140625 179.1 90.9 179.0609375 90.7 178.85 90.6 178.69453125 90.5083984375 178.5 90.55 178.3001953125 90.6392578125 178.2 90.8 176.8 93.4625 175.35 96.1 175.2583984375 96.292578125 175.3 96.5 175.37578125 96.69921875 175.55 96.8 175.7419921875 96.8916015625 175.95 96.8 176.1490234375 96.7736328125 176.25 96.6 177.7 93.9373046875 179.1 91.25
M 181.5 86.15
Q 181.7146484375 86.108203125 181.8 85.9 183.1001953125 83.2125 184.3 80.45 184.391796875 80.26328125 184.3 80.05 184.24453125 79.8830078125 184.05 79.8 183.863671875 79.7080078125 183.65 79.75 183.483203125 79.8556640625 183.4 80.05 182.199609375 82.7873046875 180.9 85.45 180.8080078125 85.6716796875 180.85 85.85 180.941015625 86.06484375 181.1 86.15 181.32109375 86.2419921875 181.5 86.15
M 188.75 69.2
Q 188.841796875 69.034375 188.75 68.85 188.665625 68.654296875 188.45 68.55 188.284765625 68.5080078125 188.1 68.6 187.904296875 68.6845703125 187.8 68.85 186.7748046875 71.725 185.65 74.5 185.6080078125 74.713671875 185.7 74.9 185.7830078125 75.09453125 185.95 75.15 186.163671875 75.2419921875 186.35 75.15 186.54453125 75.066796875 186.6 74.85 187.725 72.0748046875 188.75 69.2
M 192.5 57.8
Q 192.59140625 57.5921875 192.5 57.4 192.39921875 57.22578125 192.2 57.15 191.9919921875 57.1083984375 191.8 57.2 191.6259765625 57.3005859375 191.55 57.5 190.7248046875 60.4 189.75 63.25 189.708203125 63.4427734375 189.8 63.6 189.8986328125 63.809765625 190.1 63.85 190.2927734375 63.941796875 190.45 63.85 190.659765625 63.751171875 190.7 63.55 191.6751953125 60.7 192.5 57.8
M 194.75 45.6
Q 194.5978515625 45.7423828125 194.55 45.95 193.9125 48.8373046875 193.15 51.7 193.121484375 51.9224609375 193.2 52.1 193.327734375 52.27578125 193.5 52.3 193.723046875 52.3787109375 193.9 52.25 194.0755859375 52.17265625 194.1 51.95 194.8876953125 49.0623046875 195.55 46.15 195.590625 45.9494140625 195.45 45.75 195.3576171875 45.59765625 195.15 45.55 194.9494140625 45.5091796875 194.75 45.6
M 197 33.9
Q 196.8330078125 34.020703125 196.8 34.2 196.2998046875 37.1623046875 195.75 40.1 195.7224609375 40.303125 195.85 40.45 195.9572265625 40.65390625 196.15 40.7 196.3533203125 40.727734375 196.5 40.6 196.7037109375 40.49296875 196.75 40.3 197.3 37.3373046875 197.8 34.35 197.8271484375 34.1703125 197.7 34 197.5791015625 33.8328125 197.35 33.8 197.1703125 33.7724609375 197 33.9
M 199.4 22.45
Q 199.4134765625 22.2396484375 199.25 22.05 199.14921875 21.917578125 198.95 21.9 198.7400390625 21.886328125 198.55 22 198.417578125 22.1509765625 198.4 22.35 198.0998046875 25.3373046875 197.7 28.25 197.6734375 28.4826171875 197.8 28.65 197.9232421875 28.8185546875 198.1 28.85 198.3322265625 28.8767578125 198.5 28.75 198.668359375 28.6265625 198.7 28.4 199.1001953125 25.4625 199.4 22.45
M 200.1 10.15
Q 199.9833984375 10.015625 199.75 10 199.5740234375 9.9876953125 199.4 10.1 199.2658203125 10.2666015625 199.25 10.45 199.0998046875 13.4748046875 198.9 16.4 198.8875 16.6248046875 199 16.75 199.165234375 16.93359375 199.35 16.95 199.5748046875 16.9626953125 199.7 16.8 199.8833984375 16.684765625 199.9 16.45 200.1 13.525 200.25 10.5 200.262109375 10.3240234375 200.1 10.15
M 199.65 -0.85
Q 199.5017578125 -0.7052734375 199.5 -0.5 199.5 -0.25 199.5 0 199.4998046875 2.2498046875 199.45 4.5 199.4509765625 4.702734375 199.6 4.85 199.7435546875 4.99765625 199.95 5 200.153125 4.9990234375 200.3 4.85 200.4474609375 4.7068359375 200.45 4.5 200.5 2.25 200.5 0 200.5 -0.25 200.5 -0.5 200.4982421875 -0.7052734375 200.35 -0.85 200.2052734375 -0.9982421875 200 -1 199.7947265625 -0.9982421875 199.65 -0.85
M 199.25 -12.9
Q 199.137890625 -12.7259765625 199.15 -12.55 199.3 -9.525 199.4 -6.5 199.4029296875 -6.2677734375 199.55 -6.15 199.7099609375 -5.98828125 199.9 -6 200.1322265625 -6.002734375 200.25 -6.15 200.4115234375 -6.31015625 200.4 -6.55 200.3 -9.575 200.15 -12.6 200.133984375 -12.7833984375 199.95 -12.95 199.8259765625 -13.0623046875 199.6 -13.05 199.4166015625 -13.034375 199.25 -12.9
M 198.6 -25.1
Q 198.3869140625 -25.0693359375 198.25 -24.9 198.123828125 -24.7462890625 198.15 -24.55 198.5 -21.5498046875 198.75 -18.5 198.7669921875 -18.3021484375 198.9 -18.2 199.088671875 -18.0369140625 199.3 -18.05 199.498046875 -18.0669921875 199.6 -18.25 199.762890625 -18.3884765625 199.75 -18.6 199.5 -21.65 199.15 -24.65 199.119140625 -24.862890625 198.95 -25 198.79609375 -25.1263671875 198.6 -25.1
M 197.25 -37
Q 197.0796875 -37.1275390625 196.85 -37.1 196.6708984375 -37.0671875 196.55 -36.9 196.42265625 -36.7296875 196.45 -36.55 196.95 -33.575 197.4 -30.6 197.432421875 -30.3716796875 197.6 -30.25 197.7689453125 -30.1228515625 197.95 -30.15 198.1779296875 -30.18203125 198.3 -30.35 198.426953125 -30.5193359375 198.4 -30.75 197.95 -33.725 197.45 -36.7 197.4169921875 -36.879296875 197.25 -37
M 195 -48.65
Q 194.9765625 -48.82109375 194.8 -48.95 194.624609375 -49.028515625 194.4 -49 194.2291015625 -48.9267578125 194.1 -48.75 194.0216796875 -48.5744140625 194.05 -48.4 194.7623046875 -45.4375 195.35 -42.45 195.3966796875 -42.24375 195.55 -42.15 195.74765625 -42.0095703125 195.95 -42.05 196.1560546875 -42.0966796875 196.25 -42.3 196.390234375 -42.448046875 196.35 -42.65 195.7375 -45.6625 195 -48.65
M 190.9 -60.4
Q 190.808203125 -60.1947265625 190.85 -60 191.7748046875 -57.1125 192.55 -54.25 192.6251953125 -54.026953125 192.8 -53.95 192.978125 -53.82109375 193.15 -53.9 193.3732421875 -53.925 193.45 -54.1 193.5787109375 -54.2779296875 193.5 -54.5 192.725 -57.3875 191.8 -60.3 191.7609375 -60.4998046875 191.55 -60.6 191.39453125 -60.691796875 191.2 -60.65 191 -60.5609375 190.9 -60.4
M 187.85 -71.75
Q 187.7951171875 -71.91640625 187.6 -72 187.4146484375 -72.0919921875 187.2 -72.05 187.033984375 -71.9453125 186.95 -71.75 186.858203125 -71.564453125 186.9 -71.4 187.9748046875 -68.575 188.95 -65.75 189.0412109375 -65.5349609375 189.2 -65.45 189.42109375 -65.3580078125 189.6 -65.45 189.81484375 -65.491015625 189.9 -65.7 189.991796875 -65.8712890625 189.9 -66.1 188.925 -68.9251953125 187.85 -71.75
M 177.8 -93.8
Q 177.6990234375 -93.9736328125 177.5 -94.05 177.2919921875 -94.0916015625 177.1 -94 176.92578125 -93.89921875 176.85 -93.7 176.8083984375 -93.492578125 176.9 -93.3 178.3498046875 -90.6625 179.7 -88 179.7990234375 -87.7904296875 180 -87.75 180.192578125 -87.658203125 180.35 -87.75 180.559765625 -87.848828125 180.6 -88.05 180.6916015625 -88.242578125 180.6 -88.45 179.2501953125 -91.1375 177.8 -93.8
M 182.55 -83.2
Q 182.3546875 -83.116015625 182.25 -82.95 182.208203125 -82.7359375 182.3 -82.55 183.5498046875 -79.8 184.7 -77 184.769140625 -76.8193359375 184.95 -76.75 185.1501953125 -76.6705078125 185.35 -76.75 185.53046875 -76.8189453125 185.6 -77 185.691796875 -77.200390625 185.6 -77.4 184.4625 -80.2001953125 183.2 -82.95 183.116015625 -83.1447265625 182.9 -83.25 182.7353515625 -83.2919921875 182.55 -83.2
M 170.85 -104.05
Q 170.821875 -103.85 170.9 -103.7 172.5248046875 -101.1375 174 -98.55 174.1271484375 -98.375390625 174.3 -98.35 174.522265625 -98.2712890625 174.7 -98.4 174.875390625 -98.4771484375 174.9 -98.7 174.9787109375 -98.871484375 174.85 -99.05 173.375 -101.6625 171.75 -104.25 171.6576171875 -104.389453125 171.45 -104.45 171.249609375 -104.4783203125 171.05 -104.4 170.9103515625 -104.2580078125 170.85 -104.05
M 164.15 -114.05
Q 164.1228515625 -113.8201171875 164.25 -113.65 165.9873046875 -111.2125 167.6 -108.75 167.74375 -108.547265625 167.95 -108.5 168.151953125 -108.4595703125 168.3 -108.6 168.503125 -108.6935546875 168.55 -108.9 168.590234375 -109.1015625 168.45 -109.3 166.8126953125 -111.7875 165.05 -114.25 164.9283203125 -114.4171875 164.7 -114.45 164.519921875 -114.4775390625 164.35 -114.35 164.1826171875 -114.22890625 164.15 -114.05
M 44.7 -195.7
Q 44.60703125 -195.85234375 44.4 -195.9 41.45 -196.5501953125 38.5 -197.1 38.296875 -197.1275390625 38.1 -197 37.94609375 -196.8927734375 37.9 -196.7 37.872265625 -196.4966796875 38 -196.35 38.10703125 -196.1462890625 38.3 -196.1 41.25 -195.55 44.2 -194.9 44.4009765625 -194.859375 44.55 -195 44.7525390625 -195.0927734375 44.8 -195.3 44.8408203125 -195.5009765625 44.7 -195.7
M 55.8 -192.1
Q 56.0220703125 -192.0212890625 56.2 -192.15 56.375 -192.2267578125 56.4 -192.45 56.47890625 -192.621875 56.35 -192.8 56.273046875 -192.9748046875 56.05 -193.05 53.175 -193.8251953125 50.25 -194.55 50.07578125 -194.5783203125 49.9 -194.5 49.7234375 -194.37109375 49.65 -194.2 49.621484375 -193.97578125 49.7 -193.8 49.8287109375 -193.623828125 50 -193.6 52.925 -192.875 55.8 -192.1
M 61.25 -190.65
Q 61.3501953125 -190.4390625 61.55 -190.4 64.4373046875 -189.4748046875 67.25 -188.5 67.4787109375 -188.408203125 67.65 -188.5 67.858984375 -188.58515625 67.9 -188.8 67.9919921875 -188.97890625 67.9 -189.2 67.8150390625 -189.3587890625 67.6 -189.45 64.7625 -190.4251953125 61.85 -191.35 61.6552734375 -191.391796875 61.45 -191.3 61.2890625 -191.2 61.2 -191 61.158203125 -190.80546875 61.25 -190.65
M 72.65 -186.65
Q 72.733203125 -186.45546875 72.9 -186.4 75.7125 -185.2875 78.45 -184.1 78.63671875 -184.008203125 78.8 -184.1 79.0169921875 -184.15546875 79.1 -184.35 79.1919921875 -184.536328125 79.1 -184.75 79.0443359375 -184.916796875 78.85 -185 76.0876953125 -186.2126953125 73.25 -187.35 73.086328125 -187.3919921875 72.9 -187.3 72.70546875 -187.2169921875 72.6 -187.05 72.5580078125 -186.836328125 72.65 -186.65
M 157.8 -123.9
Q 157.6623046875 -124.031640625 157.45 -124.05 157.240625 -124.076171875 157.05 -123.95 156.9177734375 -123.8125 156.9 -123.6 156.873828125 -123.3912109375 157 -123.25 158.8998046875 -120.8873046875 160.7 -118.5 160.8228515625 -118.33203125 161 -118.3 161.231640625 -118.273046875 161.4 -118.4 161.568359375 -118.52265625 161.6 -118.75 161.6267578125 -118.93125 161.5 -119.1 159.7 -121.5125 157.8 -123.9
M 150 -133.05
Q 149.8837890625 -133.18359375 149.65 -133.2 149.474609375 -133.2126953125 149.3 -133.1 149.1662109375 -132.933984375 149.15 -132.75 149.1375 -132.5248046875 149.25 -132.4 151.2748046875 -130.125 153.2 -127.85 153.35234375 -127.6669921875 153.55 -127.65 153.761328125 -127.6369140625 153.9 -127.8 154.083203125 -127.901953125 154.1 -128.1 154.1125 -128.3111328125 153.95 -128.5 152.0251953125 -130.7751953125 150 -133.05
M 146.1 -137.1
Q 146.098828125 -137.302734375 145.95 -137.45 143.9 -139.6 141.75 -141.75 141.6052734375 -141.8982421875 141.4 -141.9 141.1947265625 -141.8982421875 141.05 -141.75 140.9017578125 -141.6052734375 140.9 -141.4 140.9017578125 -141.1947265625 141.05 -141.05 143.1998046875 -138.9001953125 145.25 -136.75 145.39375 -136.602734375 145.6 -136.6 145.803125 -136.6009765625 145.95 -136.75 146.09765625 -136.8935546875 146.1 -137.1
M 110.95 -167.25
Q 110.903125 -167.45546875 110.7 -167.6 108.225 -169.2751953125 105.65 -170.9 105.5 -170.978125 105.3 -170.95 105.0919921875 -170.8896484375 104.95 -170.75 104.8716796875 -170.550390625 104.9 -170.35 104.960546875 -170.1423828125 105.1 -170.05 107.6748046875 -168.425 110.15 -166.75 110.34765625 -166.609765625 110.55 -166.65 110.7556640625 -166.6962890625 110.85 -166.9 110.9904296875 -167.046875 110.95 -167.25
M 115.7 -164.05
Q 115.5298828125 -164.1771484375 115.3 -164.15 115.12109375 -164.1173828125 115 -163.95 114.8724609375 -163.780078125 114.9 -163.6 114.9328125 -163.3716796875 115.1 -163.25 117.5498046875 -161.5 119.95 -159.65 120.117578125 -159.5236328125 120.3 -159.55 120.5263671875 -159.58125 120.65 -159.75 120.7767578125 -159.9171875 120.75 -160.15 120.718359375 -160.326171875 120.55 -160.45 118.15 -162.300390625 115.7 -164.05
M 100.7 -173.8
Q 100.6759765625 -173.971484375 100.5 -174.1 97.9 -175.6376953125 95.25 -177.1 95.057421875 -177.1916015625 94.85 -177.15 94.65078125 -177.07421875 94.55 -176.9 94.4583984375 -176.7080078125 94.5 -176.5 94.5763671875 -176.3009765625 94.75 -176.2 97.3998046875 -174.7625 100 -173.25 100.1765625 -173.1216796875 100.35 -173.2 100.5716796875 -173.223828125 100.65 -173.4 100.7787109375 -173.5765625 100.7 -173.8
M 90.1 -179.6
Q 90.0595703125 -179.8009765625 89.85 -179.9 87.1625 -181.2501953125 84.4 -182.5 84.2140625 -182.591796875 84 -182.55 83.833984375 -182.4453125 83.75 -182.25 83.6580078125 -182.0646484375 83.7 -181.9 83.8052734375 -181.683984375 84 -181.6 86.7373046875 -180.35 89.4 -179 89.607421875 -178.9083984375 89.8 -179 90.001171875 -179.040234375 90.1 -179.25 90.191796875 -179.407421875 90.1 -179.6
M 134 -148.95
Q 133.816796875 -148.9341796875 133.65 -148.8 133.537890625 -148.6263671875 133.55 -148.45 133.5658203125 -148.2171875 133.7 -148.1 135.9123046875 -146.0875 138.05 -144 138.19609375 -143.8517578125 138.4 -143.85 138.6056640625 -143.8521484375 138.75 -144 138.8986328125 -144.1458984375 138.9 -144.35 138.89765625 -144.5552734375 138.75 -144.7 136.5875 -146.8126953125 134.35 -148.85 134.2263671875 -148.96171875 134 -148.95
M 125.3 -156.7
Q 125.16015625 -156.8130859375 124.95 -156.8 124.7509765625 -156.7826171875 124.6 -156.65 124.4865234375 -156.4603515625 124.5 -156.25 124.5173828125 -156.0513671875 124.65 -155.95 126.975 -154.0248046875 129.25 -152.05 129.425390625 -151.8876953125 129.6 -151.9 129.834765625 -151.91640625 129.95 -152.1 130.112890625 -152.2251953125 130.1 -152.45 130.08359375 -152.6341796875 129.9 -152.8 127.625 -154.7751953125 125.3 -156.7
M 26.05 -198.45
Q 26.0236328125 -198.25390625 26.15 -198.1 26.287109375 -197.930859375 26.5 -197.9 29.4873046875 -197.5498046875 32.4 -197.1 32.63125 -197.073046875 32.8 -197.2 32.9677734375 -197.3220703125 33 -197.55 33.0271484375 -197.7310546875 32.9 -197.9 32.777734375 -198.067578125 32.55 -198.1 29.6125 -198.5501953125 26.6 -198.9 26.4037109375 -198.926171875 26.25 -198.8 26.0806640625 -198.6630859375 26.05 -198.45
M 14.6 -200.05
Q 14.425390625 -200.0626953125 14.25 -199.95 14.11640625 -199.7845703125 14.1 -199.6 14.0873046875 -199.3751953125 14.2 -199.25 14.3650390625 -199.0666015625 14.55 -199.05 17.5623046875 -198.85 20.55 -198.55 20.76015625 -198.5365234375 20.9 -198.7 21.082421875 -198.80078125 21.1 -199 21.1134765625 -199.2099609375 20.95 -199.4 20.8490234375 -199.532421875 20.65 -199.55 17.6375 -199.8501953125 14.6 -200.05
M 2.65 -200.5
Q 2.44609375 -200.4986328125 2.3 -200.35 2.1521484375 -200.205859375 2.15 -200 2.151171875 -199.7962890625 2.3 -199.65 2.4443359375 -199.50234375 2.65 -199.5 5.6375 -199.45 8.6 -199.35 8.8400390625 -199.3384765625 9 -199.5 9.147265625 -199.6177734375 9.15 -199.85 9.16171875 -200.0400390625 9 -200.2 8.88203125 -200.3470703125 8.65 -200.35 5.6625 -200.4501953125 2.65 -200.5 Z"/>
</g>
</defs>

<g transform="matrix( 1, 0, 0, 1, 640.4,359.9) ">
<g transform="matrix( 1, 0, 0, 1, 0,0) ">
<use xlink:href="#CircumLine_0_Layer0_0_STROKES_1_FILL"/>
</g>
</g>
</svg>
