
<svg xmlns="http://www.w3.org/2000/svg" version="1.1" xmlns:xlink="http://www.w3.org/1999/xlink" preserveAspectRatio="none" x="0px" y="0px" width="1280px" height="720px" viewBox="0 0 1280 720">
<defs>
<g id="Layer0_0_STROKES_1_FILL">
<path fill="#999999" stroke="none" d="
M 632 392.5
Q 632.1447265625 392.6482421875 632.35 392.65
L 638.35 392.65
Q 638.5552734375 392.6482421875 638.7 392.5 638.8482421875 392.3552734375 638.85 392.15 638.8482421875 391.9447265625 638.7 391.8 638.5552734375 391.6517578125 638.35 391.65
L 632.35 391.65
Q 632.1447265625 391.6517578125 632 391.8 631.8517578125 391.9447265625 631.85 392.15 631.8517578125 392.3552734375 632 392.5
M 620.35 391.65
Q 620.1447265625 391.6517578125 620 391.8 619.8517578125 391.9447265625 619.85 392.15 619.8517578125 392.3552734375 620 392.5 620.1447265625 392.6482421875 620.35 392.65
L 626.35 392.65
Q 626.5552734375 392.6482421875 626.7 392.5 626.8482421875 392.3552734375 626.85 392.15 626.8482421875 391.9447265625 626.7 391.8 626.5552734375 391.6517578125 626.35 391.65
L 620.35 391.65
M 608.35 391.65
Q 608.1447265625 391.6517578125 608 391.8 607.8517578125 391.9447265625 607.85 392.15 607.8517578125 392.3552734375 608 392.5 608.1447265625 392.6482421875 608.35 392.65
L 614.35 392.65
Q 614.5552734375 392.6482421875 614.7 392.5 614.8482421875 392.3552734375 614.85 392.15 614.8482421875 391.9447265625 614.7 391.8 614.5552734375 391.6517578125 614.35 391.65
L 608.35 391.65
M 596 392.5
Q 596.1447265625 392.6482421875 596.35 392.65
L 602.35 392.65
Q 602.5552734375 392.6482421875 602.7 392.5 602.8482421875 392.3552734375 602.85 392.15 602.8482421875 391.9447265625 602.7 391.8 602.5552734375 391.6517578125 602.35 391.65
L 596.35 391.65
Q 596.1447265625 391.6517578125 596 391.8 595.8517578125 391.9447265625 595.85 392.15 595.8517578125 392.3552734375 596 392.5
M 584.35 391.65
Q 584.1447265625 391.6517578125 584 391.8 583.8517578125 391.9447265625 583.85 392.15 583.8517578125 392.3552734375 584 392.5 584.1447265625 392.6482421875 584.35 392.65
L 590.35 392.65
Q 590.5552734375 392.6482421875 590.7 392.5 590.8482421875 392.3552734375 590.85 392.15 590.8482421875 391.9447265625 590.7 391.8 590.5552734375 391.6517578125 590.35 391.65
L 584.35 391.65
M 572 392.5
Q 572.1447265625 392.6482421875 572.35 392.65
L 578.35 392.65
Q 578.5552734375 392.6482421875 578.7 392.5 578.8482421875 392.3552734375 578.85 392.15 578.8482421875 391.9447265625 578.7 391.8 578.5552734375 391.6517578125 578.35 391.65
L 572.35 391.65
Q 572.1447265625 391.6517578125 572 391.8 571.8517578125 391.9447265625 571.85 392.15 571.8517578125 392.3552734375 572 392.5
M 560.35 391.65
Q 560.1447265625 391.6517578125 560 391.8 559.8517578125 391.9447265625 559.85 392.15 559.8517578125 392.3552734375 560 392.5 560.1447265625 392.6482421875 560.35 392.65
L 566.35 392.65
Q 566.5552734375 392.6482421875 566.7 392.5 566.8482421875 392.3552734375 566.85 392.15 566.8482421875 391.9447265625 566.7 391.8 566.5552734375 391.6517578125 566.35 391.65
L 560.35 391.65
M 548.35 391.65
Q 548.1447265625 391.6517578125 548 391.8 547.8517578125 391.9447265625 547.85 392.15 547.8517578125 392.3552734375 548 392.5 548.1447265625 392.6482421875 548.35 392.65
L 554.35 392.65
Q 554.5552734375 392.6482421875 554.7 392.5 554.8482421875 392.3552734375 554.85 392.15 554.8482421875 391.9447265625 554.7 391.8 554.5552734375 391.6517578125 554.35 391.65
L 548.35 391.65
M 536 392.5
Q 536.1447265625 392.6482421875 536.35 392.65
L 542.35 392.65
Q 542.5552734375 392.6482421875 542.7 392.5 542.8482421875 392.3552734375 542.85 392.15 542.8482421875 391.9447265625 542.7 391.8 542.5552734375 391.6517578125 542.35 391.65
L 536.35 391.65
Q 536.1447265625 391.6517578125 536 391.8 535.8517578125 391.9447265625 535.85 392.15 535.8517578125 392.3552734375 536 392.5
M 524 392.5
Q 524.1447265625 392.6482421875 524.35 392.65
L 530.35 392.65
Q 530.5552734375 392.6482421875 530.7 392.5 530.8482421875 392.3552734375 530.85 392.15 530.8482421875 391.9447265625 530.7 391.8 530.5552734375 391.6517578125 530.35 391.65
L 524.35 391.65
Q 524.1447265625 391.6517578125 524 391.8 523.8517578125 391.9447265625 523.85 392.15 523.8517578125 392.3552734375 524 392.5
M 512 392.5
Q 512.1447265625 392.6482421875 512.35 392.65
L 518.35 392.65
Q 518.5552734375 392.6482421875 518.7 392.5 518.8482421875 392.3552734375 518.85 392.15 518.8482421875 391.9447265625 518.7 391.8 518.5552734375 391.6517578125 518.35 391.65
L 512.35 391.65
Q 512.1447265625 391.6517578125 512 391.8 511.8517578125 391.9447265625 511.85 392.15 511.8517578125 392.3552734375 512 392.5
M 500.35 391.65
Q 500.1447265625 391.6517578125 500 391.8 499.8517578125 391.9447265625 499.85 392.15 499.8517578125 392.3552734375 500 392.5 500.1447265625 392.6482421875 500.35 392.65
L 506.35 392.65
Q 506.5552734375 392.6482421875 506.7 392.5 506.8482421875 392.3552734375 506.85 392.15 506.8482421875 391.9447265625 506.7 391.8 506.5552734375 391.6517578125 506.35 391.65
L 500.35 391.65
M 488.35 391.65
Q 488.1447265625 391.6517578125 488 391.8 487.8517578125 391.9447265625 487.85 392.15 487.8517578125 392.3552734375 488 392.5 488.1447265625 392.6482421875 488.35 392.65
L 494.35 392.65
Q 494.5552734375 392.6482421875 494.7 392.5 494.8482421875 392.3552734375 494.85 392.15 494.8482421875 391.9447265625 494.7 391.8 494.5552734375 391.6517578125 494.35 391.65
L 488.35 391.65
M 476 392.5
Q 476.1447265625 392.6482421875 476.35 392.65
L 482.35 392.65
Q 482.5552734375 392.6482421875 482.7 392.5 482.8482421875 392.3552734375 482.85 392.15 482.8482421875 391.9447265625 482.7 391.8 482.5552734375 391.6517578125 482.35 391.65
L 476.35 391.65
Q 476.1447265625 391.6517578125 476 391.8 475.8517578125 391.9447265625 475.85 392.15 475.8517578125 392.3552734375 476 392.5
M 464.35 391.65
Q 464.1447265625 391.6517578125 464 391.8 463.8517578125 391.9447265625 463.85 392.15 463.8517578125 392.3552734375 464 392.5 464.1447265625 392.6482421875 464.35 392.65
L 470.35 392.65
Q 470.5552734375 392.6482421875 470.7 392.5 470.8482421875 392.3552734375 470.85 392.15 470.8482421875 391.9447265625 470.7 391.8 470.5552734375 391.6517578125 470.35 391.65
L 464.35 391.65
M 452 392.5
Q 452.1447265625 392.6482421875 452.35 392.65
L 458.35 392.65
Q 458.5552734375 392.6482421875 458.7 392.5 458.8482421875 392.3552734375 458.85 392.15 458.8482421875 391.9447265625 458.7 391.8 458.5552734375 391.6517578125 458.35 391.65
L 452.35 391.65
Q 452.1447265625 391.6517578125 452 391.8 451.8517578125 391.9447265625 451.85 392.15 451.8517578125 392.3552734375 452 392.5
M 650.7 391.8
Q 650.5552734375 391.6517578125 650.35 391.65
L 644.35 391.65
Q 644.1447265625 391.6517578125 644 391.8 643.8517578125 391.9447265625 643.85 392.15 643.8517578125 392.3552734375 644 392.5 644.1447265625 392.6482421875 644.35 392.65
L 650.35 392.65
Q 650.5552734375 392.6482421875 650.7 392.5 650.8482421875 392.3552734375 650.85 392.15 650.8482421875 391.9447265625 650.7 391.8 Z"/>
</g>
</defs>

<g transform="matrix( 1, 0, 0, 1, 88.05,-31.75) ">
<use xlink:href="#Layer0_0_STROKES_1_FILL"/>
</g>
</svg>
